screens;
 
http://imgcum.com/img-5086e2f456753.html
 
http://imgcum.com/img-5086e3094a532.html

Video
ID                                       : 2
Format                                   : VC-1
Format profile                           : MP@HL
Codec ID                                 : WMV3
Codec ID/Info                            : Windows Media Video 9
Codec ID/Hint                            : WMV3
Description of the codec                 : Windows Media Video 9 - Professional
Duration                                 : 26mn 9s
Bit rate mode                            : Constant
Bit rate                                 : 4 500 Kbps
Width                                    : 1 280 pixels
Height                                   : 720 pixels
Display aspect ratio                     : 16:9
Frame rate                               : 29.970 fps
Bit depth                                : 8 bits
Scan type                                : Progressive
Compression mode                         : Lossy
Bits/(Pixel*Frame)                       : 0.163
Stream size                              : 842 MiB (98%)
Language                                 : Hungarian

Audio
ID                                       : 1
Format                                   : WMA
Format version                           : Version 2
Codec ID                                 : 161
Codec ID/Info                            : Windows Media Audio
Description of the codec                 : Windows Media Audio 9.2 -  96 kbps, 44 kHz, stereo 1-pass CBR
Duration                                 : 26mn 9s
Bit rate mode                            : Constant
Bit rate                                 : 96.0 Kbps
Channel(s)                               : 2 channels
Sampling rate                            : 44.1 KHz
Bit depth                                : 16 bits
Stream size                              : 18.0 MiB (2%)
Language                                 : English (US)
